<svg id="Layer_1" data-name="Layer 1" xmlns="http://www.w3.org/2000/svg" viewBox="0 0 1337.75 732.84"><defs><style>.cls-1{fill:#2a2e4f;}</style></defs><path class="cls-1" d="M307.29,640c-5.11-14.33-10-28.7-14.92-43.07-2.63-7.71,41.1-15.44,38.64-23.18-2.61-8.23-5.28-16.44-7.59-24.72-3.62-13-6.92-26.08-10.44-39.11-1.38-5.09-3-10.14-4.51-15.21v-9.5l5.76,2.92V475.31a7.9,7.9,0,0,1,1.13,2.22c.44,3.33.46,6.72,1.13,10,2.3,11.41,4.71,22.81,7.34,34.18.53,2.26,2.25,4.34,3.42,6.5l1.58-.27c.14-1.69.69-3.44.37-5.08-1.81-9.15-3.81-18.28-5.77-27.41-2.48-11.58-5.36-23.11-7.37-34.74-2.5-14.39-4.76-28.82-6.23-43.29-1.52-15-.87-30,4.6-44.7,1.89-5.09,4.34-9.87,8.82-13.85,3.62-3.21,7.74-6.24,13.52-6.5a147.48,147.48,0,0,1,18.57.15,838.18,838.18,0,0,0,85.66,2c3.65-.08,7.3-.35,10.95-.53a23.54,23.54,0,0,0-6.86-1.77c-2.18-.31-4.38-.53-6.58-.78l.12-.83c66,.32,130.14-9.87,194.37-19.79a7.62,7.62,0,0,0-3.3-.21q-17.24,2-34.48,3.94c-21.87,2.49-43.75,4.93-65.62,7.45-33.84,3.9-67.91,5.33-102.08,5.6-4,0-8.11-1.07-12.17-1.64.06-.46.12-.93.17-1.39,8.19,0,16.42.37,24.56-.07,23.2-1.26,46.42-2.52,69.54-4.42,16.81-1.39,33.53-3.62,50.22-5.79,14.44-1.88,28.82-4.12,43.18-6.37,10.88-1.7,21.72-3.61,32.54-5.54,11.56-2.07,23.1-4.18,34.6-6.45,12.59-2.48,25.14-5.12,37.69-7.76,4.63-1,9.17-2.22,13.8-3.19,11.78-2.47,23.62-4.78,35.38-7.29,6.34-1.35,12.54-3.07,18.85-4.46,11.39-2.51,22.82-4.88,34.22-7.34,8.62-1.87,17.24-3.74,25.82-5.71,6.23-1.44,12.4-3.05,18.6-4.58a2.06,2.06,0,0,0-1.57-.38c-9.15,1.8-18.31,3.59-27.46,5.44q-14.64,2.94-29.24,6-15.54,3.22-31,6.54c-9.74,2.07-19.45,4.2-29.2,6.23q-27.75,5.78-55.55,11.46-15.36,3.12-30.81,6c-11.3,2.1-22.61,4.14-33.95,6-12,2-23.93,4-36,5.72-15,2.14-30.11,4-45.17,5.94a758.65,758.65,0,0,1-95.51,6.33c-10.75,0-21.5-.1-32.25-.13-3.19,0-5.16-1.15-5.18-3.68s2.37-3.25,5-3.65c.61-.09,1.26,0,1.89,0,32-1.66,64.11-3,96.09-5.12,17.72-1.2,35.31-3.67,52.88-5.91,14-1.78,27.8-4,41.66-6.19,11.25-1.77,22.48-3.62,33.66-5.63s22.29-4.23,33.41-6.46c6.11-1.22,12.13-2.71,18.23-4,12.28-2.58,24.62-5,36.87-7.64,9.23-2,18.39-4.16,27.54-6.36,17-4.09,34-8,50.88-12.45s33.6-8.92,51.2-11.37c11-1.53,21.78-4.25,32.63-6.49,8.28-1.71,16.52-3.51,24.79-5.27,9.48-2,18.94-4.09,28.45-6,20.12-4.1,40.24-8.24,60.43-12.15,10.51-2,21.24-3.4,31.75-5.44,26-5.06,52.6-6.63,79.12-8.61,38-2.83,76-4,114-.6,17.65,1.58,35.16,4.27,52.69,6.61,4.72.64,9.3,1.86,13.94,2.81a11.65,11.65,0,0,0-4.73-1.94c-8.3-1.64-16.67-3.08-24.93-4.84-19.12-4.09-38.78-5.34-58.37-7-31.29-2.68-62.43-.47-93.49,2.06-16.93,1.38-33.71,3.92-50.53,6.09-18.3,2.37-36.51,5.16-54.85,7.34-22,2.61-43.27,7.63-64.73,12.05-11.45,2.36-23.07,4.21-34.62,6.27a8.39,8.39,0,0,1-1.42,0l-.12-.36L923,240.85l-.3-.73Q904,244,885.19,247.93c-3.9.82-7.74,1.83-11.64,2.63-11.32,2.32-22.69,4.5-34,6.87-7.07,1.49-14,3.4-21.08,4.84-12.56,2.57-25.17,5-37.8,7.37s-25.05,4.56-37.59,6.82c-1.06.19-2.18.21-3.28.31a10.35,10.35,0,0,1,4.06-1.75q11.77-2.68,23.59-5.32c12.59-2.79,25.2-5.51,37.77-8.36,6.06-1.37,12-3.07,18.06-4.45,10.63-2.41,21.34-4.62,32-7,6.42-1.47,12.69-3.32,19.12-4.78,11.6-2.64,23.28-5.07,34.89-7.67,6-1.33,11.78-3,17.75-4.25,11.4-2.43,22.88-4.64,34.29-7,7.32-1.54,14.51-3.44,21.85-4.88,12.47-2.44,25.06-4.52,37.51-7,2.85-.58,6.27-1.44,7.51-4.68-16.12-4.09-32.11-3.16-48.28-2.17l39.62-8.27-.24-.74-62.94,11-.33-1,78-16.53a9.78,9.78,0,0,0-4.2-.25c-12.37,1.93-24.75,3.81-37.08,5.89s-24.86,4.39-37.27,6.66c-9.45,1.73-18.91,3.45-28.31,5.35-16.73,3.39-33.41,6.93-50.12,10.38-2.48.51-5,.88-7.52,1.31l-.33-1c7.73-1.74,15.46-3.44,23.17-5.23,9.67-2.24,19.29-4.59,29-6.81s19.55-4.59,29.44-6.53q27.5-5.4,55.14-10.34,18.63-3.3,37.46-5.88c15.65-2.17,31.33-4.3,47.09-5.91,18.54-1.9,37.17-3.28,55.77-4.79,6.15-.5,12.33-.75,18.49-1.11h39.47c1,.16,1.95.38,2.94.46,22.84,1.9,45.79,3.19,68.49,5.83,21.69,2.53,42.84,7.33,63.6,12.87,12.23,3.27,24.25,7.14,36,11.28,10.85,3.82,21.46,8.11,31.82,12.69,9.6,4.24,18.87,9,28,13.77s18.05,9.58,26.55,14.88c8.32,5.2,16,11.07,23.95,16.58a10.46,10.46,0,0,0,2.72.85l-.12-.09c1.81,1.7,3.45,3.54,5.45,5.09,6,4.65,12.13,9.26,18.38,13.75,1.85,1.33,4.49,2,6.35,3.31,3.32,2.36,6.3,5,9.43,7.54s6.66,5,9.63,7.77c5.71,5.29,11.26,10.7,16.68,16.17,8.59,8.66,17.45,17.19,25.41,26.2,7.46,8.43,14.16,17.29,20.69,26.19,3.85,5.25,6.76,10.93,10,16.45a36.52,36.52,0,0,1,3.35,6.59c2.89,8.66,6.12,17.28,8.19,26.07,2.77,11.73,4.65,23.59,6.77,35.42.73,4.09,1,8.23,1.48,12.34v23.74c-.75,7.38-1.9,14.75-2.16,22.14a804.15,804.15,0,0,1-8,87.52c-1.3,8.93-3.35,17.8-5,26.69l-.51,0c-.11-1.2-.23-2.41-.34-3.61l-1-.08M1108.11,226.72c-39.45,3.91-77.72,11.9-116,19.92.09.33.17.66.26,1l40-5.92c-.05-.26-.11-.52-.16-.78l-2.81-.84c4.54-.55,8-.83,11.48-1.41,11.07-1.89,22.11-3.93,33.18-5.8,10.24-1.74,20.53-3.33,30.78-5a22,22,0,0,0,3.21-1.14c2.88.06,5.84.46,8.64.11,24.62-3,49.33-5.28,74.29-5.44-27.93-1-55.44,2-82.9,5.35m159.16-23.13,34.56,5.53a136.28,136.28,0,0,0-19-4.41c-5.11-.76-10.4-.77-15.62-1.11a11.38,11.38,0,0,0-2.89-1c-5.63-.32-11.27-.51-16.91-.75-9.93-.42-19.89-1.38-29.81-1.14-21.59.52-43.16,1.65-64.73,2.54a3.71,3.71,0,0,0-1,.33c.45,2.17.45,2.15,3.16,2.26,29.42,1.11,58.83,2.46,88.26,3.27,19.73.54,38.87,3.9,57.94,7.06,16.2,2.69,32,7,47.63,11.46a340.31,340.31,0,0,1,35.23,12.71,285.58,285.58,0,0,1,27.19,13.18c11,6,21.74,12.24,32.24,18.74,8.25,5.1,16.17,10.56,23.83,16.18,6.55,4.81,12.58,10,18.74,15.15,5.82,4.82,11.9,9.49,17.2,14.64,9.43,9.15,18.67,18.43,27.41,28,8.36,9.13,16,18.68,23.94,28,6.38,7.49,11.62,15.43,14.81,24.11,2.8,7.65,6.19,15.24,7.93,23.05,2.93,13.12,4.76,26.38,7,39.59q1.62,9.44,3.21,18.89a4.28,4.28,0,0,0,.63-2.66c-1.3-15.18-2.84-30.35-3.89-45.53-.82-11.76-5-23-9.11-34.11-2.65-7.21-7.42-13.95-11.32-20.87a35,35,0,0,0-2.88-3.81c-3.61-4.67-6.63-9.74-11-13.94-5.77-5.53-11.85-10.84-16.36-17.09-1-1.39-2.24-2.66-3.37-4l.6-.33c1,.88,2,1.76,3,2.65l.72-.48c-1.66-1.52-3.47-2.95-5-4.57-5.38-5.84-10.36-11.91-16-17.56s-11.87-10.88-18-16.2c-16.69-14.5-34.55-28-54.79-39.51-7.4-4.21-14.67-8.58-22.34-12.47-9.66-4.91-19.68-9.41-29.54-14.09-1.61-.76-3.16-1.64-4.86-2.26q-10.35-3.81-20.79-7.46c-4.82-1.69-9.68-3.29-14.56-4.91l-13.48-3.89a40,40,0,0,0,8.9,3.71c1.38.39,3.08.1,4.63.12.46.53.76,1.3,1.4,1.55,4.13,1.63,8.33,3.14,12.51,4.69l.11-.1c-3.16-.75-6.37-1.42-9.49-2.27-13-3.54-26-7.22-39-10.69-6.55-1.74-13.18-3.35-19.89-4.64-10.4-2-20.9-3.66-31.36-5.47l.09-.5,4,.37m264.1,95-1,.72c4.16,4.38,8.43,8.71,12.46,13.16q11.49,12.72,22.73,25.56c4,4.6,7.76,9.35,11.65,14,4.38,5.26,9.27,10.3,13.09,15.8,6.78,9.76,13.21,19.67,16.75,30.55,2.29,7,5.2,14,7.52,21,5.12,15.54,8.46,31.23,7.11,47.39-.54,6.4-.14,12.85-.21,19.28-.39,36.4-1.39,72.78-5.7,109-.61,5.14-.09,10.35-.09,15.53a214.19,214.19,0,0,0,5.15-27.78c2-18.91,4.2-37.84,5-56.79.78-18.16.33-36.38-.37-54.55a207,207,0,0,0-3.82-30.67c-2.32-12.07-4.83-24.19-8.79-36-3.28-9.74-8.2-19.24-13.5-28.46-4.71-8.2-10.69-16-16.59-23.72-4.53-6-9.68-11.66-14.78-17.34q-8-8.93-16.47-17.59c-4.55-4.68-9.4-9.18-14.15-13.73-1.95-1.87-4-3.67-6-5.5M1257.84,187.37c-1.45-.25-2.88-.58-4.34-.75q-11.24-1.25-22.5-2.42c-7.89-.81-15.77-1.69-23.69-2.29a415.64,415.64,0,0,0-62.13.07c-18.59,1.39-37.13,3.29-55.65,5.27-10.24,1.09-20.4,2.7-30.54,4.28-7.14,1.12-14.18,2.59-21.26,3.9,36.47-4.12,72.72-8.92,109.65-10.24a944.45,944.45,0,0,1,110.46,2.18m-181.4-2c67.14-7.27,134.28-9.41,201.44-.06-67.16-13.92-134.31-10.51-201.44.06m244.9,50.74c-1.9-.71-3.76-1.48-5.71-2.11-12-3.9-24.54-5.74-37.24-7.47-35.91-4.9-50.93-6-80.49-5.14,42.12-.16,82.93,6.3,123.44,14.72M938.73,259.67c7.15-.7,13.41-3.56,20.54-3.9a5.88,5.88,0,0,0,1.09-.23l13.33-3.35c1.16-.3,2.29-.65,3.44-1-.14-.33-.27-.68-.4-1-7.64,1.45-15.38,2.64-22.88,4.44-5.21,1.25-10.09,3.32-15.12,5m4.78-2.48c-.08-.29-.17-.58-.25-.87l-20,4.45c.08.24.17.48.26.72l20-4.3" transform="translate(-292.25 -173.58)"/><path class="cls-1" d="M1599.35,506.28c2.61,8.23,5.28,16.44,7.59,24.72,3.62,13,6.92,26.08,10.44,39.11,1.38,5.09,3,10.14,4.51,15.21v9.5l-5.76-2.92v12.79a7.9,7.9,0,0,1-1.13-2.22c-.44-3.33-.46-6.72-1.13-10-2.3-11.41-4.71-22.82-7.34-34.18-.52-2.26-2.25-4.34-3.42-6.5l-1.58.27c-.14,1.69-.69,3.44-.37,5.08,1.81,9.15,3.81,18.28,5.77,27.41,2.48,11.58,5.36,23.11,7.37,34.74,2.5,14.39,4.76,28.82,6.23,43.29,1.52,15,.87,30-4.6,44.7-1.89,5.09-4.34,9.87-8.82,13.85-3.62,3.21-7.74,6.24-13.52,6.5a147.48,147.48,0,0,1-18.57-.15,838.18,838.18,0,0,0-85.66-2c-3.65.08-7.3.35-11,.53a23.69,23.69,0,0,0,6.87,1.77c2.18.31,4.38.53,6.57.78,0,.28-.07.56-.11.83-66-.32-130.14,9.87-194.37,19.79a7.62,7.62,0,0,0,3.3.21q17.23-2,34.48-3.94c21.87-2.49,43.75-4.93,65.61-7.45,33.85-3.9,67.92-5.33,102.09-5.6,4.05,0,8.11,1.07,12.17,1.64-.06.46-.12.93-.17,1.39-8.19,0-16.42-.37-24.56.07-23.2,1.26-46.42,2.52-69.54,4.42-16.81,1.39-33.53,3.62-50.22,5.79-14.44,1.88-28.82,4.12-43.18,6.37-10.88,1.7-21.72,3.61-32.54,5.54-11.55,2.07-23.1,4.18-34.6,6.45-12.6,2.48-25.14,5.12-37.69,7.76-4.63,1-9.16,2.22-13.8,3.19-11.78,2.47-23.62,4.78-35.38,7.29-6.34,1.35-12.54,3.07-18.85,4.46-11.39,2.51-22.82,4.88-34.22,7.34-8.62,1.86-17.24,3.74-25.82,5.71-6.23,1.44-12.4,3-18.6,4.58a2.06,2.06,0,0,0,1.57.38c9.15-1.8,18.31-3.59,27.46-5.44q14.64-2.94,29.24-6,15.53-3.23,31-6.54c9.74-2.07,19.45-4.2,29.2-6.23q27.75-5.77,55.55-11.46,15.36-3.12,30.81-6c11.29-2.1,22.61-4.14,34-6,12-2,23.93-4,36-5.71,15-2.14,30.12-4,45.18-5.94a756.78,756.78,0,0,1,95.51-6.33c10.75,0,21.5.1,32.25.13,3.19,0,5.16,1.15,5.18,3.68s-2.37,3.25-5,3.65c-.61.09-1.26,0-1.89,0-32,1.66-64.11,2.95-96.09,5.12-17.72,1.2-35.31,3.67-52.88,5.91-13.95,1.78-27.8,4-41.66,6.19-11.25,1.77-22.48,3.62-33.66,5.63s-22.29,4.23-33.4,6.46c-6.12,1.22-12.14,2.71-18.24,4-12.28,2.58-24.62,5-36.87,7.64-9.23,2-18.39,4.16-27.54,6.36-17,4.09-34,8-50.88,12.45s-33.6,8.92-51.2,11.37c-11,1.53-21.77,4.25-32.63,6.49-8.28,1.71-16.52,3.51-24.79,5.27-9.48,2-18.94,4.09-28.45,6-20.12,4.1-40.24,8.24-60.43,12.15-10.52,2-21.24,3.4-31.75,5.44-26,5.06-52.6,6.63-79.12,8.61-38,2.83-76,4-114,.6-17.65-1.58-35.16-4.27-52.69-6.61-4.72-.64-9.3-1.86-13.94-2.81a11.65,11.65,0,0,0,4.73,1.94c8.3,1.63,16.67,3.08,24.93,4.84,19.12,4.09,38.78,5.34,58.37,7,31.29,2.68,62.42.47,93.49-2.06,16.93-1.38,33.71-3.92,50.53-6.09,18.3-2.37,36.51-5.16,54.85-7.34,22-2.61,43.27-7.63,64.73-12.05,11.45-2.36,23.07-4.21,34.62-6.27a8.39,8.39,0,0,1,1.42,0l.12.36-22.08,5.91.3.73q18.78-3.9,37.55-7.81c3.9-.82,7.74-1.83,11.64-2.63,11.32-2.32,22.69-4.5,34-6.87,7.07-1.49,14-3.4,21.08-4.84,12.56-2.57,25.17-5,37.8-7.37s25-4.56,37.59-6.82c1.06-.19,2.18-.21,3.28-.31a10.35,10.35,0,0,1-4.06,1.75q-11.77,2.68-23.59,5.32c-12.58,2.79-25.2,5.51-37.77,8.36-6.06,1.37-12,3.07-18.06,4.45-10.64,2.41-21.34,4.62-32,7-6.42,1.47-12.69,3.32-19.11,4.78-11.61,2.64-23.29,5.07-34.9,7.67-6,1.33-11.78,3-17.75,4.25-11.4,2.43-22.88,4.64-34.29,7-7.31,1.54-14.51,3.44-21.85,4.88-12.47,2.44-25.07,4.52-37.51,7-2.85.58-6.27,1.44-7.51,4.68,16.12,4.09,32.11,3.16,48.28,2.17l-39.62,8.27.24.74,62.94-11,.33,1-78,16.53a9.77,9.77,0,0,0,4.2.25c12.37-1.93,24.75-3.81,37.08-5.89s24.86-4.39,37.27-6.66c9.45-1.73,18.91-3.45,28.31-5.35,16.73-3.39,33.41-6.93,50.12-10.38,2.48-.51,5-.88,7.52-1.31l.33,1c-7.73,1.74-15.46,3.44-23.17,5.23-9.66,2.24-19.29,4.59-29,6.81s-19.55,4.59-29.44,6.53q-27.5,5.4-55.14,10.34Q905.85,892,887,894.61c-15.65,2.17-31.33,4.3-47.09,5.91-18.54,1.9-37.17,3.27-55.77,4.79-6.15.5-12.33.75-18.49,1.11H726.2c-1-.16-2-.38-2.94-.46-22.84-1.9-45.79-3.19-68.49-5.83-21.69-2.53-42.84-7.33-63.6-12.87-12.23-3.27-24.25-7.14-36-11.29-10.85-3.81-21.46-8.1-31.82-12.68-9.6-4.24-18.87-9-28-13.77s-18.06-9.58-26.55-14.89c-8.32-5.19-16-11.06-24-16.57a10.09,10.09,0,0,0-2.72-.85l.12.09c-1.81-1.7-3.45-3.54-5.45-5.09-6-4.65-12.14-9.26-18.38-13.75-1.85-1.33-4.49-2-6.35-3.31-3.31-2.36-6.3-5-9.43-7.54s-6.66-5-9.63-7.77c-5.71-5.29-11.26-10.7-16.68-16.17-8.59-8.66-17.45-17.19-25.41-26.2-7.46-8.43-14.16-17.29-20.69-26.19-3.85-5.25-6.76-10.93-10-16.45a36.52,36.52,0,0,1-3.35-6.59c-2.89-8.66-6.12-17.28-8.19-26.07-2.77-11.73-4.65-23.59-6.77-35.42-.73-4.09-1-8.23-1.48-12.34V590.67c.74-7.38,1.9-14.75,2.16-22.14M822.25,853.28c39.45-3.91,77.73-11.9,116-19.92-.09-.33-.18-.66-.26-1l-40,5.92c0,.26.11.52.16.78l2.81.83c-4.54.56-8,.84-11.48,1.42-11.07,1.89-22.11,3.93-33.18,5.8-10.25,1.74-20.53,3.33-30.78,5a22,22,0,0,0-3.21,1.14c-2.88-.06-5.84-.46-8.64-.11-24.62,3-49.32,5.28-74.29,5.44,27.93,1,55.44-2,82.9-5.35M663.09,876.41l-34.56-5.53a136.28,136.28,0,0,0,19,4.41c5.11.76,10.4.77,15.62,1.11a11.38,11.38,0,0,0,2.89,1c5.63.32,11.27.51,16.91.75,9.93.42,19.89,1.38,29.81,1.14,21.59-.52,43.16-1.65,64.73-2.54a3.71,3.71,0,0,0,1-.33c-.45-2.17-.45-2.15-3.16-2.26-29.42-1.11-58.83-2.46-88.26-3.27-19.73-.54-38.87-3.9-57.94-7.07-16.2-2.68-32-7-47.63-11.45a340.31,340.31,0,0,1-35.23-12.71A285.58,285.58,0,0,1,519,826.47c-11-6-21.74-12.24-32.24-18.74-8.25-5.1-16.17-10.56-23.84-16.18-6.54-4.81-12.57-10-18.73-15.15-5.82-4.82-11.9-9.49-17.2-14.64-9.43-9.15-18.67-18.43-27.41-28-8.36-9.13-16-18.68-23.94-28-6.38-7.49-11.62-15.43-14.81-24.11-2.8-7.65-6.19-15.24-7.93-23-2.93-13.12-4.76-26.38-7-39.59q-1.62-9.43-3.21-18.89a4.35,4.35,0,0,0-.63,2.66c1.3,15.18,2.84,30.34,3.89,45.53.82,11.76,5,23,9.11,34.11,2.65,7.21,7.42,13.94,11.32,20.87a35,35,0,0,0,2.88,3.81c3.61,4.67,6.63,9.74,11,13.94,5.77,5.53,11.85,10.84,16.36,17.09,1,1.39,2.24,2.66,3.37,4l-.6.33c-1-.88-2-1.76-3.05-2.65l-.72.48c1.66,1.52,3.46,3,5,4.57,5.38,5.84,10.36,11.91,16,17.56s11.87,10.88,18,16.2c16.69,14.5,34.55,28,54.79,39.51,7.4,4.21,14.67,8.57,22.33,12.47,9.68,4.91,19.69,9.41,29.55,14.09,1.61.76,3.16,1.64,4.86,2.26q10.35,3.81,20.79,7.46c4.82,1.69,9.68,3.29,14.56,4.91l13.48,3.89a40,40,0,0,0-8.9-3.71c-1.38-.39-3.08-.1-4.64-.12-.45-.53-.75-1.3-1.39-1.55-4.13-1.63-8.33-3.14-12.52-4.69l-.1.1c3.16.75,6.37,1.42,9.49,2.27,13,3.54,26,7.22,39,10.69,6.55,1.74,13.18,3.35,19.89,4.64,10.4,2,20.9,3.66,31.36,5.47l-.09.5-4-.37M304.54,553.88c-.78,18.16-.33,36.38.37,54.55a207,207,0,0,0,3.82,30.67c2.32,12.07,4.83,24.19,8.79,36,3.28,9.74,8.2,19.24,13.5,28.46,4.71,8.2,10.69,16,16.58,23.72,4.54,6,9.69,11.66,14.79,17.34q8,8.92,16.47,17.59c4.55,4.68,9.4,9.18,14.15,13.73,1.95,1.87,4,3.67,6,5.5l1-.72c-4.17-4.38-8.43-8.71-12.46-13.16Q376.07,754.81,364.83,742c-4-4.6-7.75-9.36-11.65-14-4.38-5.26-9.27-10.3-13.09-15.8-6.78-9.76-13.21-19.67-16.75-30.55-2.29-7.06-5.2-14-7.52-21-5.12-15.54-8.46-31.23-7.11-47.39.54-6.4.14-12.85.21-19.28m363.6,298.74c1.45.25,2.88.58,4.34.75q11.25,1.25,22.5,2.42c7.89.81,15.77,1.69,23.69,2.29a415.65,415.65,0,0,0,62.13-.07c18.59-1.39,37.13-3.29,55.65-5.27,10.24-1.09,20.4-2.7,30.54-4.28,7.14-1.12,14.18-2.59,21.26-3.9-36.47,4.12-72.73,8.92-109.65,10.24a944.45,944.45,0,0,1-110.46-2.18m181.4,2c-67.14,7.27-134.28,9.41-201.44.06,67.16,13.92,134.31,10.51,201.44-.06M609,843.88c1.9.71,3.76,1.48,5.7,2.11,12,3.9,24.55,5.74,37.25,7.47,35.91,4.9,50.93,6,80.49,5.14-42.12.16-82.93-6.3-123.44-14.72m382.6-23.55c-7.14.7-13.4,3.56-20.53,3.9a5.88,5.88,0,0,0-1.09.23c-4.45,1.12-8.89,2.22-13.33,3.35-1.16.3-2.29.65-3.44,1,.13.33.27.67.4,1,7.64-1.45,15.38-2.64,22.88-4.44,5.21-1.25,10.09-3.32,15.11-5m-4.77,2.47c.09.3.17.59.25.88l20-4.45c-.08-.24-.17-.48-.26-.72l-19.95,4.29" transform="translate(-292.25 -173.58)"/></svg>