<svg id="Layer_1" data-name="Layer 1" xmlns="http://www.w3.org/2000/svg" xmlns:xlink="http://www.w3.org/1999/xlink" viewBox="0 0 611.04 444.74"><defs><style>.cls-1,.cls-15,.cls-21,.cls-25,.cls-26,.cls-27{fill:none;}.cls-2{fill:#bdcbe8;}.cls-3{fill:#b1bfe1;}.cls-4{fill:#95a2d2;}.cls-5{fill:#788ac5;}.cls-6{fill:#fff;}.cls-7{fill:#c8c8c8;}.cls-8{fill:#1a163c;}.cls-9{fill:#f7a389;}.cls-10{fill:#4f65ae;}.cls-11{fill:#576eb3;}.cls-12{fill:#261e50;}.cls-13{fill:#ec886c;}.cls-14{fill:#0d0d15;}.cls-15{stroke:#0d0d15;stroke-width:0.94px;}.cls-15,.cls-21{stroke-miterlimit:10;}.cls-16{fill:#355a3a;}.cls-17{fill:#359f48;}.cls-18{fill:#181133;}.cls-19{opacity:0.22;}.cls-20{clip-path:url(#clip-path);}.cls-21,.cls-25,.cls-26,.cls-27{stroke:#fff;}.cls-21{stroke-width:0.25px;}.cls-22{fill:#201d49;}.cls-23{fill:#2d2d60;}.cls-24{fill:#1a153f;}.cls-25,.cls-26,.cls-27{stroke-linecap:round;stroke-linejoin:round;}.cls-25{stroke-width:0.4px;}.cls-26{stroke-width:0.48px;}.cls-27{stroke-width:0.44px;}</style><clipPath id="clip-path" transform="translate(-700.18 -358.54)"><rect class="cls-1" x="983.36" y="591.75" width="73.93" height="160.37"/></clipPath></defs><path class="cls-2" d="M1125.44,421.52l-62.19,19.34-47.77-28.44a1.27,1.27,0,0,1-.38-1.76,1.22,1.22,0,0,1,.65-.51,41.09,41.09,0,0,1,17.9-1.46Z" transform="translate(-700.18 -358.54)"/><path class="cls-3" d="M1028.3,408.23l44.81,26.67,46-14.28-85.44-12a41.87,41.87,0,0,0-5.36-.38" transform="translate(-700.18 -358.54)"/><path class="cls-4" d="M915.83,463.23l-.8.25A23.57,23.57,0,0,1,897.38,462l-57.69-29.22a10.23,10.23,0,0,0-7.58-.64l-4,1.25a1.36,1.36,0,0,0-.88,1.7s0,.07,0,.11l20.86,49.06,3,7.06,66.94-20.78Z" transform="translate(-700.18 -358.54)"/><path class="cls-5" d="M976,494.4,1231.94,415A205.31,205.31,0,0,0,1274,396.5l33.67-19.56a6.33,6.33,0,0,0,1.34-1,7.09,7.09,0,0,0-4-12.15L1267.33,359a52.81,52.81,0,0,0-22.31,2L852.38,482.81a4.35,4.35,0,0,0-2.28,1.6,4.48,4.48,0,0,0,.9,6.27,4.74,4.74,0,0,0,1.3.68l6.82,2.27a192.62,192.62,0,0,0,116.9.83" transform="translate(-700.18 -358.54)"/><path class="cls-6" d="M959.28,485,1243,397a226.87,226.87,0,0,0,46.64-20.47l19-11.07a7,7,0,0,0-3.74-1.64L1267.29,359a52.84,52.84,0,0,0-22.32,2L852.38,482.8a4.48,4.48,0,0,0-3,5.6,4.83,4.83,0,0,0,.6,1.23,213.8,213.8,0,0,0,109.25-4.55" transform="translate(-700.18 -358.54)"/><path class="cls-3" d="M1255.89,370.77l30.26-9.4-18.86-2.48-13.76,4.27a4,4,0,0,0,2.36,7.61" transform="translate(-700.18 -358.54)"/><path class="cls-3" d="M1213.75,386.91l2-.62a1.88,1.88,0,0,0,1.25-2.35h0l-.62-2a1.9,1.9,0,0,0-2.36-1.24l-2,.61a1.89,1.89,0,0,0-1.25,2.36l.62,2a1.9,1.9,0,0,0,2.36,1.24" transform="translate(-700.18 -358.54)"/><path class="cls-3" d="M1197.15,392.06l2-.61a1.9,1.9,0,0,0,1.26-2.36h0l-.61-2a1.89,1.89,0,0,0-2.36-1.24h0l-2,.62a1.89,1.89,0,0,0-1.25,2.35h0l.63,2a1.89,1.89,0,0,0,2.35,1.24" transform="translate(-700.18 -358.54)"/><path class="cls-3" d="M1180.54,397.21l2-.61a1.9,1.9,0,0,0,1.24-2.37h0l-.62-2a1.89,1.89,0,0,0-2.36-1.24h0l-2,.62a1.87,1.87,0,0,0-1.25,2.35l.7,2a1.89,1.89,0,0,0,2.36,1.24" transform="translate(-700.18 -358.54)"/><path class="cls-3" d="M1164,402.37l2-.62a1.89,1.89,0,0,0,1.25-2.36h0l-.61-2a1.88,1.88,0,0,0-2.34-1.25h0l-2,.61a1.86,1.86,0,0,0-1.25,2.32v0l.61,2a1.89,1.89,0,0,0,2.35,1.24" transform="translate(-700.18 -358.54)"/><path class="cls-3" d="M1147.37,407.52l2-.62a1.88,1.88,0,0,0,1.24-2.36h0l-.61-2a1.89,1.89,0,0,0-2.35-1.25h0l-2,.61a1.88,1.88,0,0,0-1.25,2.33v0l.62,2a1.89,1.89,0,0,0,2.35,1.24" transform="translate(-700.18 -358.54)"/><path class="cls-3" d="M1130.78,412.67l2-.61a1.9,1.9,0,0,0,1.24-2.37h0l-.62-2a1.88,1.88,0,0,0-2.36-1.25h0l-2,.63a1.88,1.88,0,0,0-1.24,2.35l.61,2a1.89,1.89,0,0,0,2.36,1.24" transform="translate(-700.18 -358.54)"/><path class="cls-3" d="M1114.18,417.82l2-.61a1.9,1.9,0,0,0,1.24-2.37l-.61-2a1.9,1.9,0,0,0-2.36-1.25h0l-2,.63a1.89,1.89,0,0,0-1.24,2.35l.62,2a1.87,1.87,0,0,0,2.35,1.25" transform="translate(-700.18 -358.54)"/><path class="cls-3" d="M1097.6,423l2-.63a1.89,1.89,0,0,0,1.24-2.35l-.62-2a1.89,1.89,0,0,0-2.36-1.26h0l-2,.62a1.89,1.89,0,0,0-1.24,2.36l.61,2a1.9,1.9,0,0,0,2.37,1.24h0" transform="translate(-700.18 -358.54)"/><path class="cls-3" d="M1081,428.13l2-.63a1.88,1.88,0,0,0,1.24-2.35l-.61-2a1.89,1.89,0,0,0-2.37-1.24h0l-2,.62a1.9,1.9,0,0,0-1.24,2.36l.62,2a1.89,1.89,0,0,0,2.35,1.25h0" transform="translate(-700.18 -358.54)"/><path class="cls-3" d="M1064.41,433.28l2-.63a1.89,1.89,0,0,0,1.24-2.35l-.62-2a1.89,1.89,0,0,0-2.35-1.25l-2,.61a1.9,1.9,0,0,0-1.24,2.37l.61,2a1.88,1.88,0,0,0,2.36,1.25h0" transform="translate(-700.18 -358.54)"/><path class="cls-3" d="M1047.81,438.42l2-.61a1.89,1.89,0,0,0,1.25-2.35h0l-.61-2a1.9,1.9,0,0,0-2.37-1.24h0l-2,.62a1.89,1.89,0,0,0-1.24,2.36h0l.62,2a1.88,1.88,0,0,0,2.34,1.25h0" transform="translate(-700.18 -358.54)"/><path class="cls-3" d="M1031.22,443.57l2-.61a1.88,1.88,0,0,0,1.25-2.32v0l-.62-2a1.89,1.89,0,0,0-2.35-1.24l-2,.62a1.88,1.88,0,0,0-1.24,2.36h0l.61,2a1.88,1.88,0,0,0,2.35,1.25h0" transform="translate(-700.18 -358.54)"/><path class="cls-3" d="M1014.62,448.73l2-.62a1.86,1.86,0,0,0,1.31-2.29s0,0,0-.06l-.62-2a1.88,1.88,0,0,0-2.35-1.24l-2,.61a1.89,1.89,0,0,0-1.24,2.37h0l.61,2a1.88,1.88,0,0,0,2.35,1.24h0" transform="translate(-700.18 -358.54)"/><path class="cls-2" d="M1151.87,418.49l-95.78,29.77-35.18,76.34a2.66,2.66,0,0,0,1.3,3.54,2.63,2.63,0,0,0,1.91.12l2.28-.71a45.48,45.48,0,0,0,17.21-9.9Z" transform="translate(-700.18 -358.54)"/><path class="cls-3" d="M1040.64,519a2.73,2.73,0,0,0-.24,1.32,37.68,37.68,0,0,0,3.22-2.67l108.21-99.13L1076.16,442Z" transform="translate(-700.18 -358.54)"/><polygon class="cls-4" points="183.11 119.91 149.41 130.37 136.14 159.16 142.39 157.22 183.11 119.91"/><path class="cls-7" d="M1140.59,789.08c0,7.85-65.27,14.21-145.8,14.21S849,796.93,849,789.08s65.27-14.22,145.79-14.22,145.8,6.36,145.8,14.22" transform="translate(-700.18 -358.54)"/><path class="cls-8" d="M1054.5,589.51l-51.77,13.07s13.37,58,18.57,79.32c5.34,21.78,2.38,91.84,2.38,91.84h14.78l8-92.13Z" transform="translate(-700.18 -358.54)"/><path class="cls-9" d="M1043.23,495.2s5.28,18.2,13.81,49.12c0,0,11,4,40.72,6.1l-.94,9.88s-32.78,5.94-50.86-1.52-33.25-73.59-2.73-63.58" transform="translate(-700.18 -358.54)"/><polygon class="cls-10" points="371.73 200.38 387.23 218.34 412.29 185.7 402.15 166.17 371.73 200.38"/><polygon class="cls-11" points="369 207.89 395.32 172.61 412.27 185.7 387.23 218.34 369 207.89"/><path class="cls-9" d="M1108.1,551.5a.84.84,0,0,0-1-.56l-.24.12c-.91.58-2,1.92-4.55,2s-5.88-1.71-7-.56c0,0-5.49,7,.08,14,0,0,16.89,4.41,12.71-15" transform="translate(-700.18 -358.54)"/><path class="cls-10" d="M1032.79,547.91a52.69,52.69,0,0,0,24-11.25s-3.82-20.55-9.1-33-13.64-23.23-27.29-15.17-9.67,26.58,12.51,59.36" transform="translate(-700.18 -358.54)"/><path class="cls-11" d="M988.82,539.63a52.78,52.78,0,0,0,25.5,7.12s10.52-18.07,14.59-30.92,4.79-26.54-10.8-29.33-24.67,13.82-29.29,53.13" transform="translate(-700.18 -358.54)"/><path class="cls-12" d="M1047.36,595.11s-32-10.82-51.83,7.07a154,154,0,0,0,14.58,36.89c18.5,34,28,45,28,45s-20.17,17.94-59,62.79c0,0,2.43,9.18,10.23,12.11,0,0,56.94-53.71,74.12-68,5.62-4.67,4.47-8.21,2.27-18.56-3.74-17.56-16.14-69.24-18.33-77.25" transform="translate(-700.18 -358.54)"/><path class="cls-9" d="M1020.16,462l-.69,14s11,9.1,20.11,8.67l4.2-18.72-25.71-17.47Z" transform="translate(-700.18 -358.54)"/><path class="cls-13" d="M1025.42,459.52s5.87,10.94,16.56,14.27l1.75-7.83Z" transform="translate(-700.18 -358.54)"/><path class="cls-14" d="M1002.84,653.09l-26.16-19.84a3.34,3.34,0,0,1,4-5.32l26.16,19.84a3.34,3.34,0,0,1-4,5.32" transform="translate(-700.18 -358.54)"/><line class="cls-15" x1="280.92" y1="276.93" x2="223.46" y2="352.6"/><line class="cls-15" x1="299.32" y1="290.95" x2="241.86" y2="366.62"/><path class="cls-16" d="M997.2,497.67s-28,1.41-32.46,17.2-3.89,77.84-3.89,77.84,5.9,14.09,24.82,15.92c0,0,9.87,2.28,9.3-18.42s2.28-92.51,2.28-92.51" transform="translate(-700.18 -358.54)"/><path class="cls-17" d="M981.49,500.74a20,20,0,0,0-4.3,5.69c-5.49,11.8-3.8,43.61-6.13,46.17-1.94,2.13-5.24,2.54-8.51,3.42-1.38.38-3-.5-2.94-1.86,1.25-27.2-.85-49.84,21.88-53.46" transform="translate(-700.18 -358.54)"/><path class="cls-17" d="M961.11,559.85s7.53-1.73,8.84.07c1.86,2.56,1.14,31.75-1,32.55s-9.42.16-9.84-.46c-1.55-2.27-2.51-31.22,2-32.16" transform="translate(-700.18 -358.54)"/><path class="cls-9" d="M1055.74,426.76s7.76,37.73-3.76,42.35S1023.61,462,1019.49,450c-3.51-10.18-3.15-34.37,36.25-23.27" transform="translate(-700.18 -358.54)"/><path class="cls-18" d="M1044.34,432.69s3.13,8-3,9.91a10,10,0,0,0-6.5,5.23s-1-8.06-6.52-8.35c-6-.33-5.68,8.19-.39,12.39,0,0,0,10.11-7.76,10.11,0,0-17.49-20.08-9.84-32.18-1.14-3.69,4.08-13.55,17.5-14.79s17.26,1.88,27.44-1.28c9.75-3,16.16,20.35-10.88,19" transform="translate(-700.18 -358.54)"/><g class="cls-19"><g class="cls-20"><polyline class="cls-21" points="322.06 233.45 356.58 323.1 283.37 393.38"/></g></g><path class="cls-14" d="M893.91,774.21a8.38,8.38,0,1,1-8.38-8.38h0a8.39,8.39,0,0,1,8.38,8.38" transform="translate(-700.18 -358.54)"/><path class="cls-14" d="M961.93,709.53s2.58,37.44-10.83,58.12-33,17.32-33,17.32l4-6.33s14.14,5.78,22.52-16.3,6.7-45,6.7-45Z" transform="translate(-700.18 -358.54)"/><path class="cls-18" d="M946.43,698.94a24.47,24.47,0,0,1,15,8.78c5.12,6.16-33.28,65.55-41.91,78.72a4.36,4.36,0,0,1-4.77,1.83c-6.17-1.66-20.47-6.08-30.83-13.92,0,0,39.65-69.57,62.48-75.41" transform="translate(-700.18 -358.54)"/><path class="cls-22" d="M949.4,699.62s-31.52-19-48.46-3.22c-11.24,10.46-32.89,39.9-41.27,51.51a7,7,0,0,0,.76,9.1,137.56,137.56,0,0,0,24.76,18,2.59,2.59,0,0,0,3.41-.87c6.83-10.38,39.64-59.14,60.81-74.57" transform="translate(-700.18 -358.54)"/><path class="cls-23" d="M879.57,723.34a2.94,2.94,0,0,0-4,.81c-4,5.25-14,18.42-15.51,20.91-2.91,4.88,9,15.18,23.49,22.82,4.55,2.4,10.07-8,15.92-15.92,3.87-5.27,7.2-9.89,6.76-11.59s-8.05-4.2-15-8.48a127.87,127.87,0,0,1-11.66-8.52" transform="translate(-700.18 -358.54)"/><path class="cls-23" d="M949.4,699.62a66.54,66.54,0,0,0-34.46-10.41c-17.16-.27-36,29.45-36,29.45-2.43,3.14,27,21,30.25,16.89a321.41,321.41,0,0,1,32.18-34c.45-.37,3.94-3.18,8-1.9" transform="translate(-700.18 -358.54)"/><path class="cls-24" d="M896,771.19l17.56-26.49a2.27,2.27,0,0,1,2.92-.81L933.63,752a2,2,0,0,1,1,2.64,2,2,0,0,1-.14.25l-17.06,25.8a3.71,3.71,0,0,1-4.55,1.39l-15.5-6.5a3,3,0,0,1-1.61-3.93,2.87,2.87,0,0,1,.26-.49" transform="translate(-700.18 -358.54)"/><path class="cls-11" d="M1015.51,477.83s-17.18,3.11-20,28.82,0,98.48,0,98.48a46,46,0,0,0,34.36-2.65c11.75-5.69,19.27-6,22.44-6.77a2.83,2.83,0,0,0,2.21-2.74c0-2.8.08-8.2,0-16.32,0-22.75-2.51-61.42-12.3-87.89,0,0-16.59-10.12-26.79-10.93" transform="translate(-700.18 -358.54)"/><path class="cls-10" d="M1027.1,524.76c-14.35-.7-25,5-32.8,13.87-.16,30.33,1.23,66.46,1.23,66.46a44.87,44.87,0,0,0,22.36,1.27c-9.1-14-9.19-26.74-1.31-42.43,6.3-12.51,10.56-39.21,10.56-39.21" transform="translate(-700.18 -358.54)"/><path class="cls-16" d="M995.53,506.62s13.65-22.19,23.61-18.45c12.25,4.55,14.79,28.32-3.63,53.14l-9.79,10.36-2.51,9.19s24.94-22,30.81-43.38-1.85-29.87-12.58-33.53c-13.21-4.55-19.53,3.54-27.58,14.66Z" transform="translate(-700.18 -358.54)"/><path class="cls-9" d="M993.3,529.53a278.47,278.47,0,0,0-5.6,41.08c-1.13,19.27-1.35,43-1.38,50a4.54,4.54,0,0,1-1.35,3.23A20.66,20.66,0,0,0,979,640.6c.25,3.13,1.61,7.45,9.39,9.93,1.07.36,3.89,1.53,3.89-3.92s2.2-9.1,4.44-10.93,4.55,3,4.55,6.88,2.61,1.43,3.14-1.34.1-10.24-5.77-18c0,0-.1-1.37.64-10.69s2.27-40.95,5.68-49,12.89-31.1,12.89-31.1Z" transform="translate(-700.18 -358.54)"/><path class="cls-11" d="M988.82,541.41a65.79,65.79,0,0,0,25.5,5.34s10.52-18.07,14.59-30.92,4.79-26.54-10.8-29.33-24.67,15.6-29.29,54.91" transform="translate(-700.18 -358.54)"/><path class="cls-16" d="M1024,771.69a19.62,19.62,0,0,0-2.1,14.66,2.72,2.72,0,0,0,2.63,2.17H1069a1.61,1.61,0,0,0,1.55-1.65,1.23,1.23,0,0,0,0-.19c-.29-2.53-2.38-6.92-13-8.22a16.22,16.22,0,0,1-8-3.25c-3.81-3-9.6-7.05-11.61-5.92a21.84,21.84,0,0,1-14,2.4" transform="translate(-700.18 -358.54)"/><path class="cls-12" d="M1019.58,472.94c-1.58.07-4.07,4.86-4.07,4.86s4.71,3.63,16.16,7.82c5.3,1.95,8,4.69,9.18,6.41a.71.71,0,0,0,1,.18.73.73,0,0,0,.3-.5c.34-2.54.48-7-2-9.6,0,0-15.76-4.31-20.47-9.17" transform="translate(-700.18 -358.54)"/><path class="cls-16" d="M979.3,747a19.58,19.58,0,0,0-12.37,8.18,2.72,2.72,0,0,0,.13,3.41l29.57,33.25a1.61,1.61,0,0,0,2.28,0l.12-.12c1.68-1.9,3.58-6.38-2.47-15.14a16,16,0,0,1-2.87-8.11c-.3-4.82-1.14-11.86-3.29-12.61A21.73,21.73,0,0,1,979.3,747" transform="translate(-700.18 -358.54)"/><polygon class="cls-14" points="297.48 282.23 304.47 287.55 303.9 290.66 295.74 286.58 297.48 282.23"/><path class="cls-24" d="M806.41,705c0,2-10.95,3.64-24.47,3.64S757.43,707,757.43,705s11-3.64,24.47-3.64S806.38,703,806.38,705" transform="translate(-700.18 -358.54)"/><path class="cls-17" d="M787.9,711.38s-5.08-15.27,1.41-22.19-3.89-18.56,11.46-25.16,14.79-22,28.19-22,23.88-6.29,28.23-.37-15.93,8.77-15.93,18.77-2,11-7.49,17.24c-3.07,3.5-1.64,11.23-8.45,18.73-5.35,5.88-19.42,3.89-37.4,15" transform="translate(-700.18 -358.54)"/><path class="cls-25" d="M787.9,711.38s6.39-15.33,21.13-23.45,9.53-41.18,48.16-46.31" transform="translate(-700.18 -358.54)"/><path class="cls-16" d="M790.92,718.65s-2.69-21.85,2.28-39.41-3.14-23.19-17-27.73-5.13-19-9.3-32.49-14.49,7.47-17.94-10.91-8.69-27.86-12.87-27.07-5.59,4.86-8.58,25.86-17.58,19.46-4.93,36.12,15.92,11.94,8.84,26.39c-15,30.87,38.74,21.75,59.5,49.24" transform="translate(-700.18 -358.54)"/><path class="cls-26" d="M790.92,718.65s-6.89-36.75-26.76-54.9-33-37.53-28.07-82.71" transform="translate(-700.18 -358.54)"/><path class="cls-17" d="M784,715.66s-21.62-57.15-36.4-53.55-16.35,4.38-29.88-6.45-23.36,1-13,9.66,10.71,9.45.85,19,13.65,20.24,34.38,17.07S780.77,711,784,715.71" transform="translate(-700.18 -358.54)"/><path class="cls-27" d="M784,715.66s-10.12-21.25-37.35-26.75-14.51-23.41-46.25-31.78" transform="translate(-700.18 -358.54)"/><path class="cls-23" d="M781.94,708.64c-11.38,0-20.83-1.13-23.63-2.69,2.78,3.59,11.68,19.61,17,81.18,0,.9,3,1.63,6.68,1.63s6.67-.73,6.67-1.63c5.28-61.57,14.17-77.59,16.95-81.18-2.79,1.54-12.29,2.69-23.62,2.69" transform="translate(-700.18 -358.54)"/></svg>