<svg id="Layer_1" data-name="Layer 1" xmlns="http://www.w3.org/2000/svg" viewBox="0 0 1646.04 681.39"><defs><style>.cls-1{fill:#d7d7d7;}</style></defs><path class="cls-1" d="M219,397.54c1.68-3.31,6.25-5.69,11.64-5.69a17,17,0,0,1,4.25.54,8.93,8.93,0,0,1,4.7-4.93c1.43-7.44,10.74-13.2,22-13.2,8.51,0,15.92,3.27,19.63,8.07a19.23,19.23,0,0,1,7-1.29c7.77,0,14.06,4.31,14.06,9.62a7.11,7.11,0,0,1-.13,1.22h1.26c5.4,0,10,2.37,11.64,5.68Z" transform="translate(-139.96 -150.29)"/><path class="cls-1" d="M1513.25,412.28c1.66-3.31,6.24-5.69,11.63-5.69a17.42,17.42,0,0,1,4.25.53,8.93,8.93,0,0,1,4.71-4.89c1.43-7.46,10.74-13.23,22-13.23,8.52,0,15.92,3.28,19.64,8.1a19.19,19.19,0,0,1,7-1.3c7.77,0,14.07,4.31,14.07,9.64a7.12,7.12,0,0,1-.14,1.22h1.27c5.4,0,10,2.38,11.63,5.69Z" transform="translate(-139.96 -150.29)"/><path class="cls-1" d="M1168.62,797.85c1.66-3.3,6.24-5.68,11.63-5.68a16.94,16.94,0,0,1,4.25.52,8.91,8.91,0,0,1,4.71-4.88c1.43-7.47,10.74-13.23,22-13.23,8.52,0,15.92,3.27,19.64,8.09a19.18,19.18,0,0,1,7-1.29c7.77,0,14.07,4.31,14.07,9.64a7.12,7.12,0,0,1-.14,1.22h1.27c5.4,0,10,2.38,11.63,5.69Z" transform="translate(-139.96 -150.29)"/><path class="cls-1" d="M995.84,691c1.66-3.31,6.23-5.69,11.62-5.69a17.07,17.07,0,0,1,4.26.52,9,9,0,0,1,4.7-4.88c1.44-7.47,10.74-13.23,22-13.23,8.52,0,15.93,3.27,19.65,8.09a19.3,19.3,0,0,1,7-1.29c7.77,0,14.07,4.31,14.07,9.64a6.24,6.24,0,0,1-.13,1.22h1.27c5.39,0,10,2.38,11.62,5.69Z" transform="translate(-139.96 -150.29)"/><path class="cls-1" d="M1689.92,282.61c1.66-3.3,6.24-5.68,11.63-5.68a17.41,17.41,0,0,1,4.25.52,9,9,0,0,1,4.7-4.88c1.44-7.47,10.74-13.23,22-13.23,8.52,0,15.92,3.28,19.64,8.09a19,19,0,0,1,7-1.29c7.77,0,14.07,4.32,14.07,9.64a6.25,6.25,0,0,1-.14,1.22h1.26c5.41,0,10,2.38,11.64,5.69Z" transform="translate(-139.96 -150.29)"/><path class="cls-1" d="M1641.88,535.12c1.66-3.31,6.23-5.69,11.64-5.69a17.9,17.9,0,0,1,4.24.52,9,9,0,0,1,4.71-4.88c1.43-7.47,10.73-13.23,22-13.23,8.52,0,15.92,3.27,19.64,8.09a19.39,19.39,0,0,1,7-1.29c7.76,0,14.06,4.32,14.06,9.64a6.24,6.24,0,0,1-.13,1.22h1.27c5.39,0,10,2.38,11.63,5.69Z" transform="translate(-139.96 -150.29)"/><path class="cls-1" d="M1439.42,668.19c1.67-3.31,6.24-5.69,11.64-5.69a17.84,17.84,0,0,1,4.24.53,8.91,8.91,0,0,1,4.71-4.88c1.43-7.47,10.74-13.23,22-13.23,8.52,0,15.92,3.27,19.64,8.09a19,19,0,0,1,7-1.29c7.77,0,14.07,4.32,14.07,9.64a6.25,6.25,0,0,1-.14,1.22h1.28c5.39,0,10,2.38,11.62,5.68Z" transform="translate(-139.96 -150.29)"/><path class="cls-1" d="M1158,381.62c1.66-3.32,6.23-5.69,11.64-5.69a16.88,16.88,0,0,1,4.24.54,9,9,0,0,1,4.71-4.94c1.43-7.44,10.74-13.2,22-13.2,8.51,0,15.92,3.28,19.63,8.08a19,19,0,0,1,7-1.29c7.76,0,14.07,4.31,14.07,9.62a7,7,0,0,1-.14,1.21h1.27c5.39,0,10,2.38,11.63,5.69Z" transform="translate(-139.96 -150.29)"/><path class="cls-1" d="M532.51,352c1.67-3.31,6.25-5.69,11.64-5.69a17.91,17.91,0,0,1,4.25.52,9,9,0,0,1,4.7-4.88c1.44-7.47,10.74-13.23,22-13.23,8.51,0,15.92,3.27,19.63,8.09a19.23,19.23,0,0,1,7-1.29c7.77,0,14.06,4.32,14.06,9.64a7.11,7.11,0,0,1-.13,1.22H617c5.39,0,10,2.44,11.64,5.69Z" transform="translate(-139.96 -150.29)"/><path class="cls-1" d="M1005.08,294.06c-1.7-3.3-6.34-5.69-11.81-5.69a18,18,0,0,0-4.32.53,9,9,0,0,0-4.77-4.93c-1.45-7.46-10.89-13.22-22.35-13.22-8.63,0-16.13,3.28-19.91,8.09a20,20,0,0,0-7.12-1.29c-7.89,0-14.28,4.32-14.28,9.62a6.79,6.79,0,0,0,.14,1.2h-1.29c-5.47,0-10.11,2.41-11.8,5.69Z" transform="translate(-139.96 -150.29)"/><path class="cls-1" d="M555.92,168.91c1.33-2.64,5-4.55,9.28-4.55a14,14,0,0,1,3.41.43,7.16,7.16,0,0,1,3.76-3.94c1.13-5.95,8.57-10.56,17.58-10.56,6.82,0,12.69,2.62,15.67,6.46a15.24,15.24,0,0,1,5.61-1c6.2,0,11.23,3.46,11.23,7.7a5.56,5.56,0,0,1-.11,1h1c4.3,0,8,1.9,9.28,4.55Z" transform="translate(-139.96 -150.29)"/><path class="cls-1" d="M457.27,256.53a4.31,4.31,0,0,1,4.12-2.17,5.8,5.8,0,0,1,1.5.17,3.1,3.1,0,0,1,1.67-1.63c.52-2.47,3.8-4.37,7.8-4.37a9.07,9.07,0,0,1,6.94,2.67,7.34,7.34,0,0,1,2.5-.43c2.74,0,5,1.44,5,3.19a1.29,1.29,0,0,1,0,.29h.44a4.65,4.65,0,0,1,4.12,2.28Z" transform="translate(-139.96 -150.29)"/><path class="cls-1" d="M1412.34,340.7a5.13,5.13,0,0,1,4.12-1.64,6.28,6.28,0,0,1,1.5.18,3.07,3.07,0,0,1,1.67-1.63c.52-2.47,3.8-4.36,7.79-4.36a9,9,0,0,1,6.95,2.67,7.11,7.11,0,0,1,2.5-.43c2.75,0,5,1.42,5,3.18,0,.14,0,.28-.06-.25h.46a9.79,9.79,0,0,1,4.11,2.28Z" transform="translate(-139.96 -150.29)"/><path class="cls-1" d="M1273.58,527.23a4.41,4.41,0,0,1,4.12-2.06,6.33,6.33,0,0,1,1.5.17,3.13,3.13,0,0,1,1.67-1.63c.51-2.46,3.8-4.36,7.79-4.36a9.07,9.07,0,0,1,6.95,2.67,7,7,0,0,1,2.49-.42c2.76,0,5,1.42,5,3.17,0,.14,0,.28,0,.18h.45a5.17,5.17,0,0,1,4.12,2.28Z" transform="translate(-139.96 -150.29)"/><path class="cls-1" d="M1624.87,774a4.33,4.33,0,0,1,4.11-2.12,7.08,7.08,0,0,1,1.52.17,3,3,0,0,1,1.66-1.63c.51-2.46,3.79-4.37,7.79-4.37a9.22,9.22,0,0,1,7,2.67,7.19,7.19,0,0,1,2.48-.43c2.75,0,5,1.44,5,3.19a.84.84,0,0,1,0,.25h.44a4.83,4.83,0,0,1,4.12,2.27Z" transform="translate(-139.96 -150.29)"/><path class="cls-1" d="M988,425.68a4.39,4.39,0,0,1,4.11-2.06,7.08,7.08,0,0,1,1.52.17,3,3,0,0,1,1.66-1.63c.51-2.46,3.8-4.37,7.79-4.37a9.19,9.19,0,0,1,7,2.68,7,7,0,0,1,2.48-.42c2.75,0,5,1.42,5,3.17,0,.13,0,.27,0,.18h.44a5.17,5.17,0,0,1,4.12,2.28Z" transform="translate(-139.96 -150.29)"/><path class="cls-1" d="M386.62,808.85c1.66-3.3,6.24-5.68,11.63-5.68a16.94,16.94,0,0,1,4.25.52,8.91,8.91,0,0,1,4.71-4.88c1.43-7.47,10.74-13.23,22-13.23,8.52,0,15.92,3.27,19.64,8.09a19.18,19.18,0,0,1,7-1.29c7.77,0,14.07,4.31,14.07,9.64a7.12,7.12,0,0,1-.14,1.22h1.27c5.4,0,10,2.38,11.63,5.69Z" transform="translate(-139.96 -150.29)"/><path class="cls-1" d="M222.84,603c1.66-3.31,6.23-5.69,11.62-5.69a17.07,17.07,0,0,1,4.26.52,9,9,0,0,1,4.7-4.88c1.44-7.47,10.74-13.23,22-13.23,8.52,0,15.93,3.27,19.65,8.09a19.3,19.3,0,0,1,7-1.29c7.77,0,14.07,4.31,14.07,9.64a6.24,6.24,0,0,1-.13,1.22h1.27c5.39,0,10,2.38,11.62,5.69Z" transform="translate(-139.96 -150.29)"/><path class="cls-1" d="M859.88,546.12c1.66-3.31,6.23-5.69,11.64-5.69a17.9,17.9,0,0,1,4.24.52,9,9,0,0,1,4.71-4.88c1.43-7.47,10.73-13.23,22-13.23,8.52,0,15.92,3.27,19.64,8.09a19.39,19.39,0,0,1,7-1.29c7.76,0,14.06,4.32,14.06,9.64a6.24,6.24,0,0,1-.13,1.22h1.27c5.39,0,10,2.38,11.63,5.69Z" transform="translate(-139.96 -150.29)"/><path class="cls-1" d="M657.42,679.19c1.67-3.31,6.24-5.69,11.64-5.69a17.84,17.84,0,0,1,4.24.53,8.91,8.91,0,0,1,4.71-4.88c1.43-7.47,10.74-13.23,22-13.23,8.52,0,15.92,3.27,19.64,8.09a19,19,0,0,1,7-1.29c7.77,0,14.07,4.32,14.07,9.64a6.25,6.25,0,0,1-.14,1.22h1.28c5.39,0,10,2.38,11.62,5.68Z" transform="translate(-139.96 -150.29)"/><path class="cls-1" d="M491.58,538.23a4.41,4.41,0,0,1,4.12-2.06,6.33,6.33,0,0,1,1.5.17,3.13,3.13,0,0,1,1.67-1.63c.51-2.46,3.8-4.36,7.79-4.36a9.07,9.07,0,0,1,6.95,2.67,7,7,0,0,1,2.49-.42c2.76,0,5,1.42,5,3.17,0,.14,0,.28-.05.18h.45a5.17,5.17,0,0,1,4.12,2.28Z" transform="translate(-139.96 -150.29)"/><path class="cls-1" d="M842.87,785a4.33,4.33,0,0,1,4.11-2.12,7.08,7.08,0,0,1,1.52.17,3,3,0,0,1,1.66-1.63c.51-2.46,3.79-4.37,7.79-4.37a9.22,9.22,0,0,1,7,2.67,7.19,7.19,0,0,1,2.48-.43c2.75,0,5,1.44,5,3.19a.84.84,0,0,1,0,.25h.44a4.83,4.83,0,0,1,4.12,2.27Z" transform="translate(-139.96 -150.29)"/><path class="cls-1" d="M140,831.68a4.39,4.39,0,0,1,4.11-2.06,7.08,7.08,0,0,1,1.52.17,3,3,0,0,1,1.66-1.63c.51-2.46,3.8-4.37,7.79-4.37a9.19,9.19,0,0,1,7,2.68,7,7,0,0,1,2.48-.42c2.75,0,5,1.42,5,3.17,0,.13,0,.27,0,.18h.44a5.17,5.17,0,0,1,4.12,2.28Z" transform="translate(-139.96 -150.29)"/><path class="cls-1" d="M825.31,430.67c-1.51-2.63-5.69-4.54-10.57-4.54a17.74,17.74,0,0,0-3.85.42,7.62,7.62,0,0,0-4.28-3.92c-1.31-6-9.75-10.57-20-10.57-7.72,0-14.43,2.62-17.82,6.44a19.68,19.68,0,0,0-6.37-1.08c-7,0-12.77,3.45-12.77,7.7a4.13,4.13,0,0,0,.12,1h-1.13c-4.91,0-9.1,1.91-10.57,4.55Z" transform="translate(-139.96 -150.29)"/><path class="cls-1" d="M1588.76,170.12c-1.51-2.65-5.68-4.55-10.56-4.55a17.9,17.9,0,0,0-3.86.42,7.68,7.68,0,0,0-4.27-4c-1.31-6-9.75-10.58-20-10.58-7.72,0-14.43,2.62-17.82,6.45a19.4,19.4,0,0,0-6.37-1.07c-7.05,0-12.78,3.45-12.78,7.71a4.8,4.8,0,0,0,.13,1h-1.14c-4.9,0-9.1,1.9-10.56,4.55Z" transform="translate(-139.96 -150.29)"/></svg>